<svg xmlns="http://www.w3.org/2000/svg" width="190.218" height="60.441" viewBox="0 0 190.218 60.441">
  <g id="Group_21143" data-name="Group 21143" transform="translate(-159 -49)">
    <path id="Path_38846" data-name="Path 38846" d="M4.012,0V-12.546H.612V-17h3.4v-1.87a6.538,6.538,0,0,1,1.955-4.981A6.815,6.815,0,0,1,10.846-25.7a10.634,10.634,0,0,1,3.06.374v4.522a4.7,4.7,0,0,0-1.836-.306,3.09,3.09,0,0,0-2.244.68,3.035,3.035,0,0,0-.68,2.21V-17h4.76v4.454H9.146V0ZM19.074-19.312a3.1,3.1,0,0,1-2.244-.935,3.053,3.053,0,0,1-.952-2.261,3.053,3.053,0,0,1,.952-2.261,3.1,3.1,0,0,1,2.244-.935,3.12,3.12,0,0,1,2.3.935,3.08,3.08,0,0,1,.935,2.261,3.08,3.08,0,0,1-.935,2.261A3.12,3.12,0,0,1,19.074-19.312ZM16.524,0V-17h5.134V0Zm9.35,0V-17h5.134v1.734a5.342,5.342,0,0,1,4.726-2.108A6,6,0,0,1,40.579-15.3,8.2,8.2,0,0,1,42.33-9.826V0H37.2V-8.942q0-3.774-2.754-3.774a3.1,3.1,0,0,0-2.482,1.122,5.037,5.037,0,0,0-.952,3.332V0ZM52.19.374q-4.726,0-7.072-3.06l3.4-3.094A4.17,4.17,0,0,0,52.19-4.012q1.564,0,1.564-.952a.866.866,0,0,0-.408-.731A5.535,5.535,0,0,0,51.68-6.29l-1.122-.272A6.657,6.657,0,0,1,46.9-8.6a5.013,5.013,0,0,1-1.173-3.536,4.8,4.8,0,0,1,1.887-3.791,7.231,7.231,0,0,1,4.641-1.445,6.917,6.917,0,0,1,5.984,2.822L54.91-11.8a3.318,3.318,0,0,0-2.686-1.36q-1.394,0-1.394.884,0,.816,1.428,1.224l1.564.408a8.075,8.075,0,0,1,3.723,1.921A4.663,4.663,0,0,1,58.82-5.27,5.053,5.053,0,0,1,56.9-1.241,7.071,7.071,0,0,1,52.19.374Zm16.694,0a7.167,7.167,0,0,1-5.593-2.618A9.172,9.172,0,0,1,61-8.5a9.172,9.172,0,0,1,2.295-6.256,7.167,7.167,0,0,1,5.593-2.618A5.661,5.661,0,0,1,73.508-15.3V-17h5.134V0H73.508V-1.7A5.661,5.661,0,0,1,68.884.374ZM67.235-5.474a3.6,3.6,0,0,0,2.805,1.19,3.6,3.6,0,0,0,2.805-1.19A4.352,4.352,0,0,0,73.916-8.5a4.352,4.352,0,0,0-1.071-3.026,3.6,3.6,0,0,0-2.805-1.19,3.6,3.6,0,0,0-2.805,1.19A4.352,4.352,0,0,0,66.164-8.5,4.352,4.352,0,0,0,67.235-5.474ZM88.162,0,80.716-17h5.678L90.508-6.664,94.656-17h5.712L92.922,0Zm21.692.374a9.076,9.076,0,0,1-6.443-2.431,8.4,8.4,0,0,1-2.6-6.443,8.572,8.572,0,0,1,2.55-6.341,8.7,8.7,0,0,1,6.392-2.533A8.732,8.732,0,0,1,115.77-15.2a7.761,7.761,0,0,1,2.448,6.12,14.6,14.6,0,0,1-.1,1.8H105.774a3.013,3.013,0,0,0,1.394,2.227,4.98,4.98,0,0,0,2.754.765,5.338,5.338,0,0,0,2.482-.561,4.232,4.232,0,0,0,1.632-1.377l3.808,2.856a8.443,8.443,0,0,1-3.3,2.737A10.641,10.641,0,0,1,109.854.374ZM105.91-10.642h7.208a3.032,3.032,0,0,0-1.292-1.9,3.945,3.945,0,0,0-2.21-.646,4.491,4.491,0,0,0-2.346.629A2.911,2.911,0,0,0,105.91-10.642Z" transform="translate(231 92)" fill="#0c1b2b"/>
    <g id="FinPay_logoUpdate_SVG" transform="translate(159 49)">
      <path id="Path_1" data-name="Path 1" d="M38.74,30.462V44.809a15.9,15.9,0,0,0,7.878,13.747l12.333,7.173a15.656,15.656,0,0,0,15.757,0l12.333-7.173A15.9,15.9,0,0,0,94.92,44.809V30.462a15.9,15.9,0,0,0-7.878-13.747L74.709,9.542a15.656,15.656,0,0,0-15.757,0L46.619,16.715A15.9,15.9,0,0,0,38.74,30.462Z" transform="translate(-38.74 -7.415)" fill="#fff"/>
      <g id="Group_1" data-name="Group 1" transform="translate(11.699 7.352)">
        <path id="Path_2" data-name="Path 2" d="M251.8,127.727l-18.383,9.135a4.651,4.651,0,0,0-2.573,4.168v6.26a1.027,1.027,0,0,0,1.5.921l23.605-12.178a4.665,4.665,0,0,0,.328-8.088h0A4.586,4.586,0,0,0,251.8,127.727Z" transform="translate(-230.84 -127.248)" fill="#4caf50"/>
        <path id="Path_3" data-name="Path 3" d="M260.759,317.394l-27.367,13.921a4.685,4.685,0,0,0-2.552,4.179v.275a4.648,4.648,0,0,0,6.779,4.159l23.432-12.194a4.684,4.684,0,0,0,2.513-4.1l.059-4.441A1.975,1.975,0,0,0,260.759,317.394Z" transform="translate(-230.84 -305.525)" fill="#112f50"/>
        <path id="Path_4" data-name="Path 4" d="M339.375,700.12l-7,3.739a1.33,1.33,0,0,0-.091,2.288l7.1,4.564Z" transform="translate(-325.538 -664.974)" fill="#ff7043"/>
      </g>
    </g>
  </g>
</svg>
